<svg id="Слой_1" data-name="Слой 1" xmlns="http://www.w3.org/2000/svg" viewBox="0 0 512.00082 512"><defs><style>.cls-1{fill:#463f3a;}</style></defs><path class="cls-1" d="M332.37109,398.93753a9.9698,9.9698,0,0,1-7.07421-2.92969L256,326.711l-69.29688,69.29687a9.99635,9.99635,0,0,1-14.14062,0l-56.57031-56.5664a10.00106,10.00106,0,0,1,0-14.14453L185.28906,256l-69.293-69.29687a9.99636,9.99636,0,0,1,0-14.14063l56.56641-56.57031a9.99634,9.99634,0,0,1,14.14062,0L256,185.28909l69.29688-69.29687a9.99634,9.99634,0,0,1,14.14062,0l56.57031,56.57031a9.99636,9.99636,0,0,1,0,14.14063L326.71094,256l69.29687,69.29688a10.00107,10.00107,0,0,1,0,14.14453l-56.5664,56.5664A9.96759,9.96759,0,0,1,332.37109,398.93753ZM256,302.57034A9.961,9.961,0,0,1,263.07031,305.5l69.29688,69.29688L374.793,332.37112,305.5,263.07425a10.00107,10.00107,0,0,1,0-14.14453l69.293-69.29688-42.42578-42.42578-69.29688,69.29688a9.99637,9.99637,0,0,1-14.14062,0l-69.29688-69.29688L137.207,179.63284l69.29688,69.29688a9.99637,9.99637,0,0,1,0,14.14062L137.207,332.36722,179.63281,374.793,248.92969,305.5A9.96761,9.96761,0,0,1,256,302.57034Z" transform="translate(0 -0.00003)"/><path class="cls-1" d="M255.9375,512q-9.79687,0-19.62109-.75391a255.93982,255.93982,0,1,1,227.75-106.03125,10.00007,10.00007,0,0,1-16.23829-11.67578c67.72657-94.207,57.23438-222.23437-24.94921-304.418A235.99882,235.99882,0,0,0,89.125,89.125c-92.01953,92.01563-92.01953,241.73438,0,333.75391,82.18359,82.18359,210.207,92.67578,304.41406,24.94922a10.00007,10.00007,0,0,1,11.67578,16.23828A255.95588,255.95588,0,0,1,255.9375,512Z" transform="translate(0 -0.00003)"/><path class="cls-1" d="M429.95312,439.95316a10.00926,10.00926,0,1,1,7.07032-2.9336A10.0598,10.0598,0,0,1,429.95312,439.95316Z" transform="translate(0 -0.00003)"/></svg>