<?xml version="1.0" encoding="utf-8"?>
<!-- Generator: Adobe Illustrator 24.3.0, SVG Export Plug-In . SVG Version: 6.00 Build 0)  -->
<svg version="1.1" id="Слой_1" xmlns="http://www.w3.org/2000/svg" xmlns:xlink="http://www.w3.org/1999/xlink" x="0px" y="0px"
	 viewBox="0 0 512 512" style="enable-background:new 0 0 512 512;" xml:space="preserve">
<style type="text/css">
	.st0{fill:#463F3A;}
</style>
<path class="st0" d="M478.2,247.6h-7.6l-37.6-84.4c-7.9-17.7-25.4-29.1-44.8-29.2l-40.5-0.1v-11.5c0-21.5-17.5-39-38.9-39H160.6
	C145.1,59.1,118,43,87.1,43C39.1,43,0,82,0,130c0,38.5,25.2,71.3,60,82.7v205c0,5.5,4.5,10,10,10H97c7,24.1,29.2,41.8,55.6,41.8
	s48.6-17.7,55.6-41.8h141.8c7,24.1,29.2,41.8,55.6,41.8s48.6-17.7,55.6-41.8h41c5.5,0,10-4.5,10-10V281.4
	C512,262.8,496.8,247.6,478.2,247.6z M492,281.4v72.4H347.6v-86.3h130.5C485.8,267.6,492,273.8,492,281.4z M347.7,407.7H210.2
	c-0.9-12.9-6-24.6-14-33.8h165.5C353.7,383,348.6,394.8,347.7,407.7z M80,353.8v-38.6h247.6v38.6H80z M388.1,154
	c11.5,0,21.9,6.8,26.6,17.3l34,76.2h-101v-93.7L388.1,154z M20,130c0-36.9,30.1-67,67.1-67s67.1,30.1,67.1,67s-30.1,67-67.1,67
	S20,167,20,130z M87.1,217c48,0,87.1-39,87.1-87c0-9.3-1.5-18.2-4.2-26.6h138.7c10.4,0,18.9,8.5,18.9,19v172.8H80v-78.5
	C82.4,216.9,84.7,217,87.1,217z M80,373.8h28.8c-8,9.2-13.1,20.9-14,33.8H80V373.8z M152.5,449.5c-20.9,0-37.8-17-37.8-37.8
	c0-20.8,17-37.8,37.8-37.8c20.8,0,37.8,17,37.8,37.8C190.3,432.5,173.4,449.5,152.5,449.5z M405.4,449.5c-20.9,0-37.8-17-37.8-37.8
	c0-20.8,17-37.8,37.8-37.8s37.8,17,37.8,37.8C443.2,432.5,426.3,449.5,405.4,449.5z M492,407.7h-28.9c-0.9-12.9-6-24.6-14-33.8H492
	V407.7z"/>
<path class="st0" d="M111.2,140H87.1c-5.5,0-10-4.5-10-10V99.4c0-5.5,4.5-10,10-10s10,4.5,10,10V120h14.1c5.5,0,10,4.5,10,10
	S116.7,140,111.2,140z"/>
<path class="st0" d="M203.6,267.6c-4.2,0-8-2.7-9.4-6.6c-1.4-3.9-0.2-8.3,2.9-11c3.3-2.8,8.1-3.1,11.7-0.9c3.5,2.2,5.3,6.4,4.5,10.4
	C212.5,264.1,208.3,267.6,203.6,267.6z"/>
<path class="st0" d="M158.4,267.6h-45.3c-5.5,0-10-4.5-10-10c0-5.5,4.5-10,10-10h45.3c5.5,0,10,4.5,10,10
	C168.4,263.1,164,267.6,158.4,267.6z"/>
<path class="st0" d="M294.6,267.6h-45.3c-5.5,0-10-4.5-10-10c0-5.5,4.5-10,10-10h45.3c5.5,0,10,4.5,10,10
	C304.6,263.1,300.1,267.6,294.6,267.6z"/>
</svg>
