<svg id="Capa_1" data-name="Capa 1" xmlns="http://www.w3.org/2000/svg" viewBox="0 0 490.76711 256.21533"><defs><style>.cls-1{fill:#463f3a;}.cls-2{fill:#ca9e91;}</style></defs><path class="cls-1" d="M472.3,120.5,245.2,347.7,18.1,120.5A10.67942,10.67942,0,0,0,3,135.6L237.7,370.3a10.623,10.623,0,0,0,15.1,0L487.5,135.6a10.67943,10.67943,0,0,0-14.8-15.4c-.2.2-.3.2-.4.3Z" transform="translate(0.00179 -117.23467)"/><path class="cls-2" d="M245.2,373.4a11.00742,11.00742,0,0,1-7.6-3.1L3,135.6a10.67942,10.67942,0,0,1,15.1-15.1L245.2,347.6,472.3,120.5a10.67942,10.67942,0,1,1,15.4,14.8l-.3.3L252.7,370.3A10.59606,10.59606,0,0,1,245.2,373.4Z" transform="translate(0.00179 -117.23467)"/></svg>