<?xml version="1.0" encoding="utf-8"?>
<!-- Generator: Adobe Illustrator 24.3.0, SVG Export Plug-In . SVG Version: 6.00 Build 0)  -->
<svg version="1.1" id="Layer_1" xmlns="http://www.w3.org/2000/svg" xmlns:xlink="http://www.w3.org/1999/xlink" x="0px" y="0px"
	 viewBox="0 0 512 512" style="enable-background:new 0 0 512 512;" xml:space="preserve">
<style type="text/css">
	.st0{fill:#463F3A;}
</style>
<g>
	<g>
		<path class="st0" d="M508.7,229.2l-31.4-31.4c-4.3-4.3-11.4-4.3-15.7,0L450.4,209C429,120.3,348.8,55.8,255.6,55.8
			c-45.9,0-90.8,15.9-126.4,44.9C95,128.5,70.8,167.1,60.6,209.7L3.3,267.1c-4.3,4.3-4.3,11.4,0,15.7l31.4,31.4
			c2.1,2.1,4.9,3.3,7.9,3.3c2.9,0,5.8-1.2,7.9-3.3L61.6,303C83,391.7,163.2,456.2,256.4,456.2c45.9,0,90.8-15.9,126.4-44.9
			c34.2-27.8,58.5-66.4,68.6-109.1l57.4-57.4C513.1,240.6,513.1,233.5,508.7,229.2z M256.4,434c-89.3,0-165.3-66.7-176.7-155.2
			c-0.5-4.2-3.4-7.7-7.4-9.1c-1.2-0.4-2.4-0.6-3.6-0.6c-2.9,0-5.7,1.1-7.9,3.3l-18.3,18.3l-15.7-15.7l51.8-51.8c0,0,0,0,0,0
			l11.1-11.1l14.8,14.8c0,0,0,0,0.1,0.1l48,48l-15.7,15.7l-18.6-18.6c-3.4-3.4-8.6-4.2-12.9-2s-6.7,6.9-5.9,11.7
			c6,36.8,25,70.5,53.5,94.9c28.8,24.7,65.5,38.3,103.5,38.3c66.2,0,124.7-40.8,148.2-101.2l9.8,9.8c0.4,0.4,0.7,0.7,1.1,1
			c0.1,0.1,0.2,0.2,0.3,0.2c0.3,0.2,0.7,0.5,1,0.7c0.1,0,0.1,0.1,0.2,0.1c0.4,0.2,0.8,0.4,1.3,0.6c0.1,0,0.2,0.1,0.3,0.1
			c0.4,0.1,0.7,0.2,1.1,0.3c0.1,0,0.1,0,0.2,0.1C392.2,390.4,327.9,434,256.4,434z M335.9,244.9l51.3,51.3
			c-17.6,57.1-70.5,96.4-130.8,96.4c-53.3,0-99.9-30.1-122.5-75.6c1,0.3,2,0.4,3,0.4c2.9,0,5.8-1.2,7.9-3.3l31.4-31.4
			c4.3-4.3,4.3-11.4,0-15.7l-51.3-51.3c17.6-57.1,70.5-96.4,130.8-96.4c53.3,0,100,30.1,122.5,75.6c-1-0.3-2-0.4-3-0.4
			c-2.9,0-5.8,1.2-7.9,3.3l-31.4,31.4C331.5,233.5,331.5,240.6,335.9,244.9z M433.4,288.8C433.4,288.8,433.4,288.8,433.4,288.8
			l-11.1,11.1l-14.8-14.8c0,0,0,0,0,0l-48.1-48.1l15.7-15.7l18.6,18.6c3.4,3.4,8.6,4.2,12.9,2c4.3-2.2,6.7-6.9,5.9-11.7
			c-6-36.8-25-70.5-53.5-94.9c-28.8-24.7-65.5-38.3-103.5-38.3c-66.2,0-124.7,40.8-148.2,101.2l-9.8-9.8c-0.3-0.3-0.7-0.6-1.1-0.9
			c-0.1-0.1-0.2-0.2-0.3-0.2c-0.3-0.2-0.7-0.5-1.1-0.7c0,0-0.1-0.1-0.1-0.1c-0.4-0.2-0.8-0.4-1.3-0.6c-0.1,0-0.2-0.1-0.3-0.1
			c-0.4-0.1-0.8-0.2-1.1-0.3c-0.1,0-0.1,0-0.2-0.1C119.8,121.6,184.1,78,255.6,78c89.3,0,165.3,66.7,176.7,155.2
			c0.5,4.2,3.4,7.7,7.4,9.1c4,1.4,8.4,0.3,11.4-2.7l18.3-18.3l15.7,15.7L433.4,288.8z"/>
	</g>
</g>
<g>
	<g>
		<path class="st0" d="M256.4,155.8h-0.3c-6.1,0-11.1,5.1-11,11.2c0,6.1,5,11,11.1,11c0,0,0.1,0,0.1,0h0.2c6.1,0,11.1-5,11.1-11.1
			S262.5,155.8,256.4,155.8z"/>
	</g>
</g>
<g>
	<g>
		<path class="st0" d="M233,169.3c-2.3-5.7-8.8-8.4-14.5-6.1c-20.4,8.3-37.7,23.5-48.7,42.6c-3.1,5.3-1.3,12.1,4.1,15.2
			c1.8,1,3.7,1.5,5.6,1.5c3.8,0,7.6-2,9.6-5.6c8.6-14.9,22.1-26.6,37.9-33.1C232.6,181.5,235.3,175,233,169.3z"/>
	</g>
</g>
</svg>
