<svg id="Capa_1" data-name="Capa 1" xmlns="http://www.w3.org/2000/svg" viewBox="0 0 512 512"><defs><style>.cls-1{fill:#463f3a;}</style></defs><path class="cls-1" d="M256,375.3a10.0294,10.0294,0,0,0-10,10h0v.1a10,10,0,0,0,20,0h0A10.051,10.051,0,0,0,256,375.3Z"/><path class="cls-1" d="M414,0H98A98.15908,98.15908,0,0,0,0,98V414a98.15908,98.15908,0,0,0,98,98H256a10.0294,10.0294,0,0,0,10-10V424.5a10,10,0,0,0-20,0V492H98a78.10036,78.10036,0,0,1-78-78V98A78.10036,78.10036,0,0,1,98,20H414a78.10036,78.10036,0,0,1,78,78V414a78.10036,78.10036,0,0,1-78,78H350V315.5h58a10.14617,10.14617,0,0,0,10-9l7.2-71.5a9.89589,9.89589,0,0,0-2.5-7.7,10.00737,10.00737,0,0,0-7.4-3.3H350V186.5c0-6.8,2.2-9.3,8-9.3h56.7a10.0294,10.0294,0,0,0,10-10V97.5a10.0294,10.0294,0,0,0-10-10H340.2c-42.2,0-64.6,18.5-76,34.1-15.9,21.8-18.2,47.5-18.2,60.8v42H197a10.0294,10.0294,0,0,0-10,10v71a10.0294,10.0294,0,0,0,10,10h49V344a10,10,0,1,0,20,0V305.5a10.0294,10.0294,0,0,0-10-10H207v-51h49a10.0294,10.0294,0,0,0,10-10v-52c0-22.5,7.2-74.9,74.2-74.9h64.5v49.7H358c-12.9,0-28,7.7-28,29.3V234a10.0294,10.0294,0,0,0,10,10h64.1l-5.2,51.5H340a10.0294,10.0294,0,0,0-10,10V502a10.0294,10.0294,0,0,0,10,10h74a98.15908,98.15908,0,0,0,98-98V98A98.15908,98.15908,0,0,0,414,0Z"/><path class="cls-1" d="M58,102.5a10.0294,10.0294,0,0,0-10,10V196a10,10,0,0,0,20,0V112.5A10.0294,10.0294,0,0,0,58,102.5Z"/><path class="cls-1" d="M58,229.4a10.0294,10.0294,0,0,0-10,10v.1a10,10,0,0,0,20,0v-.1A10.0294,10.0294,0,0,0,58,229.4Z"/></svg>