<svg id="Capa_1" data-name="Capa 1" xmlns="http://www.w3.org/2000/svg" viewBox="0 0 512 512"><defs><style>.cls-1{fill:#463f3a;}</style></defs><path class="cls-1" d="M446,0H66A66.06514,66.06514,0,0,0,0,66V446a66.06515,66.06515,0,0,0,66,66H446a66.06515,66.06515,0,0,0,66-66V66A66.06515,66.06515,0,0,0,446,0Zm46,446a46.00654,46.00654,0,0,1-46,46H66a46.00654,46.00654,0,0,1-46-46V66A46.00653,46.00653,0,0,1,66,20H446a46.00654,46.00654,0,0,1,46,46Z"/><path class="cls-1" d="M304.5,244.6h-3.3a7.4,7.4,0,0,0,0,14.8h3.3a7.4,7.4,0,0,0,0-14.8Z"/><path class="cls-1" d="M392.8,244.6H328.3a7.4,7.4,0,1,0,0,14.8h64.5a7.4,7.4,0,0,0,0-14.8Z"/><path class="cls-1" d="M436.6,238.2a24.693,24.693,0,0,0-24.1-21.1H277.8a22.2782,22.2782,0,0,0-22.2,22.2v31.9a22.27821,22.27821,0,0,0,22.2,22.2h66.5c2.3,0,3.4.8,3.6,1.1a2.7982,2.7982,0,0,1-.1.6,100.44554,100.44554,0,0,1-35.9,42.4h0a100.40145,100.40145,0,0,1-149.7-47.6h0a99.22965,99.22965,0,0,1,.2-72.2h0a100.20873,100.20873,0,0,1,149.8-46.9.098.098,0,0,1,.1.1l.5.3.1.1a26.55518,26.55518,0,0,0,14.1,4.1,22.34289,22.34289,0,0,0,16.7-7.1L370,140.2a19.73567,19.73567,0,0,0,5.4-16,19.46129,19.46129,0,0,0-8.7-13.7c-.1-.1-.3-.2-.4-.3A181.27531,181.27531,0,0,0,95.9,169.1h0a181.40323,181.40323,0,0,0,.2,170.2h0a181.303,181.303,0,0,0,277.8,52.5h0a181.06353,181.06353,0,0,0,63.4-137.7C437.2,243.6,436.6,238.4,436.6,238.2ZM256,87.5a165.124,165.124,0,0,1,101.2,34.3l1.2.9c1.5,1.2,2.3,2.1,2.5,3.5a5.19655,5.19655,0,0,1-1.5,4l-26.4,28a7.99483,7.99483,0,0,1-5.9,2.4,11.72313,11.72313,0,0,1-6.2-1.8l-.4-.3a115.08376,115.08376,0,0,0-167.9,44.8l-40.7-32.6A166.1441,166.1441,0,0,1,256,87.5ZM89.5,254a166.80694,166.80694,0,0,1,15.4-69.9l41.7,33.4a113.70722,113.70722,0,0,0-.1,72.6l-41.5,34A167.4655,167.4655,0,0,1,89.5,254ZM256,420.5a166.36532,166.36532,0,0,1-144-82.9l40.4-33.1a115.12907,115.12907,0,0,0,163.1,48.2l41.7,33.4A166.69651,166.69651,0,0,1,256,420.5Zm112.7-44.1-40.6-32.5a115.72207,115.72207,0,0,0,33.2-43c.1-.1.1-.2.2-.4a15.262,15.262,0,0,0-1.5-14.4c-3.2-4.7-9.1-7.5-15.7-7.5H277.8a7.38329,7.38329,0,0,1-7.4-7.4V239.3a7.38329,7.38329,0,0,1,7.4-7.4H412.5a10.11451,10.11451,0,0,1,9.4,8.2,120.64429,120.64429,0,0,1,.6,13.9A166.3976,166.3976,0,0,1,368.7,376.4Z"/></svg>