<?xml version="1.0" encoding="utf-8"?>
<!-- Generator: Adobe Illustrator 24.3.0, SVG Export Plug-In . SVG Version: 6.00 Build 0)  -->
<svg version="1.1" id="Capa_1" xmlns="http://www.w3.org/2000/svg" xmlns:xlink="http://www.w3.org/1999/xlink" x="0px" y="0px"
	 viewBox="0 0 512 512" style="enable-background:new 0 0 512 512;" xml:space="preserve">
<style type="text/css">
	.st0{fill:#463F3A;}
</style>
<g>
	<ellipse class="st0" cx="357.7" cy="368.5" rx="10" ry="10.1"/>
	<path class="st0" d="M254.3,482.5c-2.7,0-5.2-1.1-7.1-3L61.9,294.3c-26.8-26.8-45.2-55.6-54.7-85.8c-8.7-27.4-9.6-55.6-2.7-81.4
		c5.9-22.2,17.6-42.4,33.7-58.6s36.4-27.8,58.6-33.7c25.8-6.9,54-6,81.4,2.7c27.5,8.7,53.9,24.8,78.7,47.8
		C307.1,38.7,365.1,20,417.5,34.1c44.4,11.9,78.1,45.5,90,90c14.7,54.9-6.5,116-58.1,167.6L397.3,344c-3.9,3.9-10.3,4-14.2,0
		c-3.9-3.9-4-10.3,0-14.2l52.1-52.4C481.5,231,500.8,177,488,129.2c-10-37.4-38.3-65.7-75.7-75.7c-47.7-12.8-101.7,6.5-148.2,52.9
		c-3.9,3.9-10.3,3.9-14.2,0c-34.5-34.5-72.9-53.9-111-55.9c-33.1-1.8-63.8,9.7-86.3,32.3C10.7,124.6,0.3,204.2,76.2,280.1
		l178.1,178.1l64.9-64.9c3.9-3.9,10.3-3.9,14.2,0c3.9,3.9,3.9,10.3,0,14.2l-72,72C259.5,481.4,257,482.5,254.3,482.5L254.3,482.5z"
		/>
</g>
</svg>
