<?xml version="1.0" encoding="utf-8"?>
<!-- Generator: Adobe Illustrator 24.3.0, SVG Export Plug-In . SVG Version: 6.00 Build 0)  -->
<svg version="1.1" id="Capa_1" xmlns="http://www.w3.org/2000/svg" xmlns:xlink="http://www.w3.org/1999/xlink" x="0px" y="0px"
	 viewBox="0 0 512 512" style="enable-background:new 0 0 512 512;" xml:space="preserve">
<style type="text/css">
	.st0{fill:#E0AFA0;}
</style>
<path class="st0" d="M432,199.3c-5.5-0.7-10.5,3.1-11.3,8.6c-3.8,28-14.8,54.7-31.8,77.3L267.5,446.6c-2.6,3.4-6.5,5.4-10.8,5.4
	c-4.3,0-8.2-2-10.8-5.4L124.3,285.2c-24-31.9-35.7-71.4-32.9-111.2s19.9-77.3,48.1-105.5c64.6-64.6,169.7-64.6,234.2,0
	c16.1,16.1,28.4,34.9,36.8,55.8c2,5.1,7.9,7.6,13,5.6s7.6-7.9,5.6-13c-9.4-23.5-23.2-44.6-41.2-62.6c-72.4-72.4-190.1-72.4-262.5,0
	c-31.6,31.6-50.8,73.6-53.9,118.3c-3.1,44.6,10,88.9,36.9,124.6L194.8,412h-26.1c-27.6,0-50,22.4-50,50s22.4,50,50,50h176
	c27.6,0,50-22.4,50-50s-22.4-50-50-50h-26.1L405,297.2c19.1-25.4,31.4-55.3,35.7-86.7C441.4,205,437.5,200,432,199.3L432,199.3z
	 M344.7,432c16.5,0,30,13.5,30,30s-13.5,30-30,30h-176c-16.5,0-30-13.5-30-30s13.5-30,30-30h41.2l20.1,26.6
	c6.4,8.5,16.2,13.4,26.8,13.4s20.4-4.9,26.8-13.4l20.1-26.6H344.7z"/>
<circle class="st0" cx="431" cy="164.2" r="10"/>
<path class="st0" d="M256,82.7c-51.4,0-93.1,41.7-93.1,93.1S204.6,269,256,269s93.1-41.7,93.1-93.2S307.4,82.7,256,82.7z M256,249.9
	c-40.5,0-73.3-32.8-73.3-73.3s32.8-73.3,73.3-73.3s73.3,32.8,73.3,73.3S296.5,249.9,256,249.9z"/>
</svg>
