<?xml version="1.0" encoding="utf-8"?>
<!-- Generator: Adobe Illustrator 24.3.0, SVG Export Plug-In . SVG Version: 6.00 Build 0)  -->
<svg version="1.1" id="Capa_1" xmlns="http://www.w3.org/2000/svg" xmlns:xlink="http://www.w3.org/1999/xlink" x="0px" y="0px"
	 viewBox="0 0 512 512" style="enable-background:new 0 0 512 512;" xml:space="preserve">
<style type="text/css">
	.st0{fill:#463F3A;}
</style>
<g>
	<g>
		<path class="st0" d="M64.7,272.5c52,79,164.2,90.7,231.3,23.5c44.3-44.3,57.5-113.3,28.4-172.6h0c-1.1-2.1-2.1-4.2-2.8-5.3
			c-2.7-4.8-8.7-6.6-13.6-3.9c-4.8,2.7-6.6,8.7-3.9,13.6c28.4,51.5,17,114.8-22.3,154.1c-58.3,58.3-155.5,48-200.5-20.4
			C48.7,212,53.5,145.2,95.7,100.4c40.9-42.9,105.3-53.1,156.4-24.7c4.8,2.7,10.9,0.9,13.6-3.9c2.7-4.8,0.9-10.9-3.9-13.6
			c-55.9-31-131.4-23.1-180.6,28.4C31.9,138.9,27.4,215.9,64.7,272.5z"/>
	</g>
</g>
<g>
	<g>
		<path class="st0" d="M55.6,324.3c66.6,66.6,171.1,73.8,245.9,19.5l31.2,31.2c-5.2,10.9-3.5,24.7,5.9,34.2l88.2,88.2
			c19.5,19.6,51.2,19.5,70.7,0c19.6-19.5,19.5-51.2,0-70.7l-88.2-88.2c-9.4-9.4-23.2-11.1-34.2-5.9l-31.2-31.2
			c54.3-74.7,47.1-179.2-19.5-245.9c-74.1-74.1-194.7-74.1-268.7,0C-18.5,129.7-18.5,250.2,55.6,324.3z M352.6,380.9l28.3-28.3
			c3.9-3.9,10.2-3.9,14.1,0l88.2,88.2c11.7,11.7,11.7,30.7,0,42.4c-11.7,11.7-30.7,11.7-42.4,0L352.6,395
			C348.7,391.1,348.7,384.8,352.6,380.9z M317,331.2c2.5-2.2,4.9-4.5,7.3-6.9c2.4-2.4,4.6-4.8,6.9-7.3l28.5,28.5l-14.1,14.1
			L317,331.2z M69.7,69.7c66.3-66.3,174.2-66.3,240.5,0c66.3,66.4,66.7,173.7,0,240.5c-66.8,66.8-174.2,66.3-240.5,0
			C3.4,243.9,3.4,136,69.7,69.7z"/>
	</g>
</g>
<g>
	<g>
		<path class="st0" d="M281.9,98c3.8,3.8,10,3.9,13.9,0.2c0.1-0.1,0.2-0.2,0.3-0.2c3.9-3.9,3.9-10.2,0-14.2
			c-3.9-3.9-10.2-3.9-14.2,0c-0.1,0.1-0.2,0.2-0.2,0.3C278,88,278.1,94.2,281.9,98z"/>
	</g>
</g>
</svg>
