<?xml version="1.0" encoding="utf-8"?>
<!-- Generator: Adobe Illustrator 24.3.0, SVG Export Plug-In . SVG Version: 6.00 Build 0)  -->
<svg version="1.1" id="Слой_1" xmlns="http://www.w3.org/2000/svg" xmlns:xlink="http://www.w3.org/1999/xlink" x="0px" y="0px"
	 viewBox="0 0 512 512" style="enable-background:new 0 0 512 512;" xml:space="preserve">
<style type="text/css">
	.st0{fill:#E0AFA0;}
</style>
<path class="st0" d="M512,143.9c0-15.2-6.3-28.9-16.4-38.7c-0.1-0.1-0.3-0.3-0.4-0.4C485.1,95.3,472,90,458.1,90H53.9
	c-13.9,0-27,5.3-37.1,14.8c-0.1,0.1-0.3,0.3-0.4,0.4C6.3,115,0,128.7,0,143.9v224.5C0,382,5.1,394.5,13.5,404
	c0.1,0.2,0.3,0.4,0.5,0.6c3.9,4.3,8.5,7.9,13.5,10.8c6.6,3.7,14,6.1,21.9,6.8h0c0.1,0,0.1,0,0.2,0c1.4,0.1,2.9,0.2,4.4,0.2h404.2
	c1.5,0,2.9-0.1,4.4-0.2c0.1,0,0.1,0,0.2,0h0c7.9-0.7,15.3-3.1,21.9-6.8c5-2.8,9.6-6.4,13.5-10.8c0.2-0.2,0.3-0.4,0.5-0.6
	c8.4-9.5,13.5-22,13.5-35.6V143.9z M475,397.8c0,0-0.1,0-0.1,0.1c0,0-0.1,0.1-0.1,0.1c-3.9,2.2-8.1,3.6-12.6,4.1c0,0,0,0,0,0
	c-0.1,0-0.2,0-0.3,0c-1.2,0.1-2.5,0.2-3.8,0.2H53.9c-1.3,0-2.6-0.1-3.8-0.2c-0.1,0-0.2,0-0.3,0c-4.4-0.5-8.7-2-12.6-4.2l0,0
	c-0.1,0-0.1-0.1-0.2-0.1c-0.6-0.4-1.3-0.8-1.9-1.2L79.5,340c3.4-4.3,2.7-10.6-1.7-14c-4.3-3.4-10.6-2.7-14,1.7l-41.6,52.9
	c-1.5-3.8-2.3-7.9-2.3-12.2V143.9c0-6.4,1.8-12.4,4.9-17.5l116.6,102.8l-27.9,35.5c-3.4,4.3-2.7,10.6,1.7,14c1.8,1.4,4,2.1,6.2,2.1
	c3,0,5.9-1.3,7.9-3.8l27.3-34.6l60.9,53.7c11,9.7,24.8,14.6,38.7,14.6s27.6-4.9,38.7-14.6l60.9-53.7l121.4,154.1
	C476.3,397,475.6,397.4,475,397.8z M53.9,110h404.2c5,0,9.7,1.1,14,3L350.3,220.4c-0.1,0.1-0.2,0.2-0.3,0.3l-68.6,60.5
	c-14.5,12.8-36.4,12.8-50.9,0L162,220.6c-0.1-0.1-0.2-0.2-0.3-0.3L39.9,113C44.2,111.1,48.9,110,53.9,110z M370.5,229.2l116.6-102.8
	c3.1,5.1,4.9,11.1,4.9,17.5v224.5c0,4.3-0.8,8.4-2.3,12.2L370.5,229.2z"/>
<path class="st0" d="M107.1,296.9c-0.2-0.6-0.5-1.2-0.9-1.7c-0.4-0.6-0.8-1.1-1.2-1.5c-0.5-0.5-1-0.9-1.5-1.2
	c-0.5-0.4-1.1-0.7-1.7-0.9c-0.6-0.2-1.2-0.4-1.9-0.6c-1.3-0.3-2.6-0.3-3.9,0c-0.6,0.1-1.3,0.3-1.9,0.6c-0.6,0.2-1.2,0.6-1.7,0.9
	c-0.6,0.4-1.1,0.8-1.5,1.2c-0.5,0.5-0.9,1-1.2,1.5c-0.4,0.5-0.7,1.1-0.9,1.7c-0.2,0.6-0.4,1.2-0.6,1.9c-0.1,0.6-0.2,1.3-0.2,2
	c0,0.7,0.1,1.3,0.2,2c0.1,0.6,0.3,1.3,0.6,1.9c0.2,0.6,0.6,1.2,0.9,1.7c0.4,0.6,0.8,1.1,1.2,1.5c0.5,0.5,1,0.9,1.5,1.2
	c0.5,0.4,1.1,0.7,1.7,0.9c0.6,0.2,1.2,0.4,1.9,0.6c0.6,0.1,1.3,0.2,2,0.2c0.6,0,1.3-0.1,1.9-0.2s1.3-0.3,1.9-0.6
	c0.6-0.2,1.2-0.6,1.7-0.9c0.6-0.4,1.1-0.8,1.5-1.2c0.5-0.5,0.9-1,1.2-1.5c0.4-0.5,0.7-1.1,0.9-1.7c0.2-0.6,0.5-1.2,0.6-1.9
	c0.1-0.6,0.2-1.3,0.2-2c0-0.6-0.1-1.3-0.2-2C107.5,298.2,107.3,297.5,107.1,296.9z"/>
</svg>
