<?xml version="1.0" encoding="utf-8"?>
<!-- Generator: Adobe Illustrator 24.3.0, SVG Export Plug-In . SVG Version: 6.00 Build 0)  -->
<svg version="1.1" id="Слой_1" xmlns="http://www.w3.org/2000/svg" xmlns:xlink="http://www.w3.org/1999/xlink" x="0px" y="0px"
	 viewBox="0 0 50 50" style="enable-background:new 0 0 50 50;" xml:space="preserve">
<style type="text/css">
	.st0{fill:#E0AFA0;}
	.st1{fill:#FFFFFF;}
</style>
<polygon class="st0" points="0,14.4 50,14.5 35.5,25.5 50,36.5 0,36.6 "/>
<path class="st1" d="M20,32.7c-0.1,0-0.1,0-0.2,0c-1.8-0.1-3.1-1.6-3-3.4c0.1-1.8,1.6-3.1,3.4-3c0.9,0,1.7,0.4,2.2,1.1
	c1.2,1.3,1.1,3.3-0.2,4.5C21.6,32.4,20.8,32.7,20,32.7L20,32.7z M20,27.8c-0.9,0-1.6,0.7-1.6,1.6c0,0.9,0.7,1.6,1.6,1.6
	c0.9,0,1.6-0.7,1.6-1.6c0-0.4-0.1-0.8-0.4-1.1C20.9,28,20.5,27.8,20,27.8L20,27.8z"/>
<path class="st1" d="M12.3,23.9c-1.8,0-3.2-1.4-3.2-3.2c0-1.8,1.4-3.2,3.2-3.2c0.9,0,1.8,0.4,2.4,1.1c1.2,1.3,1.1,3.3-0.2,4.5
	C13.8,23.6,13.1,23.9,12.3,23.9z M12.3,19c-0.9,0-1.6,0.7-1.6,1.6c0,0.9,0.7,1.6,1.6,1.6c0.9,0,1.6-0.7,1.6-1.6
	c0-0.4-0.1-0.8-0.4-1.1C13.2,19.3,12.8,19.1,12.3,19C12.3,19,12.3,19,12.3,19L12.3,19z"/>
<path class="st1" d="M9.8,31.5c-0.4,0-0.8-0.4-0.8-0.8c0-0.2,0.1-0.4,0.3-0.6l12.6-11.3c0.3-0.3,0.8-0.3,1.1,0
	c0.3,0.3,0.3,0.8,0,1.1c0,0,0,0,0,0L10.4,31.3C10.2,31.5,10,31.5,9.8,31.5z"/>
</svg>
