<?xml version="1.0" encoding="utf-8"?>
<!-- Generator: Adobe Illustrator 24.3.0, SVG Export Plug-In . SVG Version: 6.00 Build 0)  -->
<svg version="1.1" id="Capa_1" xmlns="http://www.w3.org/2000/svg" xmlns:xlink="http://www.w3.org/1999/xlink" x="0px" y="0px"
	 viewBox="0 0 512 512" style="enable-background:new 0 0 512 512;" xml:space="preserve">
<style type="text/css">
	.st0{fill:#463F3A;}
</style>
<g id="XMLID_26_">
	<g id="XMLID_1783_">
		<path id="XMLID_1793_" class="st0" d="M156.9,343c18.5-4.3,32.6-18.1,38.3-35h201.7c24.1,0,45.6-16.2,52.3-39.3l48.4-167
			c3.7-12.8,1.2-26.3-6.8-36.9c-8-10.7-20.2-16.8-33.6-16.8H339.8c-5.5,0-10,4.5-10,10s4.5,10,10,10h117.3c7,0,13.4,3.2,17.6,8.8
			c4.2,5.6,5.5,12.6,3.5,19.3l-48.4,167c-4.2,14.6-17.8,24.9-33.1,24.9h-199c-0.2-2.8-0.5-5.5-1.2-8.3L149.5,68h100.4
			c5.5,0,10-4.5,10-10s-4.5-10-10-10H145l-1.4-6.4C138.2,17.1,116.8,0,91.7,0H22.8c-5.5,0-10,4.5-10,10v44c0,5.5,4.5,10,10,10H83
			l49,219.9c-27.4,10.8-45.8,37.3-45.8,67.5c0,40,32.6,72.6,72.6,72.6h26.9c-11.6,9-19.1,23.1-19.1,38.8c0,27.1,22.1,49.2,49.2,49.2
			s49.2-22.1,49.2-49.2c0-15.8-7.5-29.8-19.1-38.8h110.3c-11.6,9-19.1,23.1-19.1,38.8c0,27.1,22.1,49.2,49.2,49.2
			s49.2-22.1,49.2-49.2c0-15.8-7.5-29.8-19.1-38.8h52.4c5.5,0,10-4.5,10-10v-44c0-5.5-4.5-10-10-10h-310c-4.7,0-8.6-3.9-8.6-8.6
			C150.3,347.4,153,343.9,156.9,343L156.9,343z M215.8,492c-16.1,0-29.2-13.1-29.2-29.2s13.1-29.2,29.2-29.2s29.2,13.1,29.2,29.2
			S231.9,492,215.8,492z M386.3,492c-16.1,0-29.2-13.1-29.2-29.2s13.1-29.2,29.2-29.2s29.2,13.1,29.2,29.2S402.4,492,386.3,492z
			 M130.3,351.4c0,15.8,12.8,28.6,28.6,28.6h300v24h-300c-29,0-52.6-23.6-52.6-52.6c0-24.2,16.4-45.2,39.9-51.1
			c5.3-1.3,8.5-6.6,7.4-11.9L100.8,51.8c-1-4.6-5.1-7.8-9.8-7.8H32.8V20h58.9c15.7,0,29,10.7,32.4,26l53,238
			c3.9,17.7-7.2,35.4-24.8,39.5C139.3,326.6,130.3,338,130.3,351.4L130.3,351.4z"/>
		<path id="XMLID_1829_" class="st0" d="M294.8,68c2.6,0,5.2-1.1,7.1-2.9c1.9-1.9,2.9-4.4,2.9-7.1s-1.1-5.2-2.9-7.1
			s-4.4-2.9-7.1-2.9s-5.2,1.1-7.1,2.9c-1.9,1.9-2.9,4.4-2.9,7.1s1.1,5.2,2.9,7.1C289.6,66.9,292.2,68,294.8,68z"/>
	</g>
</g>
</svg>
