<?xml version="1.0" encoding="utf-8"?>
<!-- Generator: Adobe Illustrator 24.3.0, SVG Export Plug-In . SVG Version: 6.00 Build 0)  -->
<svg version="1.1" id="Layer_1" xmlns="http://www.w3.org/2000/svg" xmlns:xlink="http://www.w3.org/1999/xlink" x="0px" y="0px"
	 viewBox="0 0 512 512" style="enable-background:new 0 0 512 512;" xml:space="preserve">
<style type="text/css">
	.st0{fill:#E0AFA0;}
</style>
<g>
	<g>
		<path class="st0" d="M449.2,392.5L378,321.2c-7.6-7.6-17.4-11.5-27.5-11c-10.2,0.5-20.3,5.4-29.1,14.2
			c-26.4,26.4-44,39.5-58.9,44.1c-14.6,4.4-27.8,1-45.6-12c-4.5-3.2-10.7-2.3-14,2.2s-2.3,10.7,2.2,14c23,16.7,42.5,21.3,63.2,15
			c12-3.6,24.3-10.9,39.5-23.4l95.7,95.7c-57.1,34.6-167.5,69.2-294.4-57.1C-17.1,276,17.5,165.6,52.1,108.5l95.7,95.7
			c-12.5,15.1-19.8,27.5-23.4,39.5c-6.3,20.8-1.7,40.3,15,63.2c3.2,4.5,9.5,5.5,14,2.2c4.5-3.2,5.5-9.5,2.2-14
			c-13-17.9-16.4-31.1-12-45.6c4.5-14.9,17.7-32.5,44.1-58.9c17.9-17.9,19.1-40.6,3.2-56.6l-71.3-71.3c-1.8-1.9-12.6-12.2-30-10.6
			c-18,1.7-35.4,15.5-51.6,41.1c-18.4,29-39.9,75.6-37.8,133.3C2.5,292,34.4,356.1,95,417c60.9,60.6,124.9,92.5,190.5,94.9
			c2.6,0.1,5.2,0.1,7.7,0.1c54.1,0,97.9-20.4,125.5-38c25.6-16.3,39.4-33.6,41.1-51.5C461.4,405.1,451.1,394.3,449.2,392.5
			L449.2,392.5z M91,72.1c8.1-0.9,13.4,3.9,14.1,4.5c0.1,0.1,0.1,0.1,0.2,0.2l71.3,71.3c8,8,6.8,18.3-3.2,28.3
			c-4.5,4.5-8.6,8.7-12.4,12.7L63.5,91.7C75.3,77,84.7,72.8,91,72.1z M439.9,420.7c-0.6,6.4-4.7,15.9-19.6,27.8l-97.6-97.6
			c4-3.8,8.3-7.9,12.7-12.4c5.2-5.2,10.7-8.1,15.9-8.4c5.7-0.3,9.9,2.7,12.4,5.2l71.3,71.3c0.1,0.1,0.2,0.2,0.2,0.2
			C435.5,407,440.7,412.3,439.9,420.7L439.9,420.7z"/>
		<path class="st0" d="M440.5,71.5C394.4,25.4,333.2,0,268,0c-17.7,0-32.1,14.4-32.1,32.1s14.4,32.1,32.1,32.1
			c48,0,93.2,18.7,127.2,52.7s52.7,79.1,52.7,127.2c0,17.7,14.4,32.1,32.1,32.1s32-14.5,32-32.2C512,178.8,486.6,117.6,440.5,71.5
			L440.5,71.5z M479.9,256.1c-6.7,0-12.1-5.4-12.1-12.1c0-53.4-20.8-103.6-58.5-141.3C371.6,64.9,321.4,44.1,268,44.1
			c-6.7,0-12.1-5.4-12.1-12.1s5.4-12,12.1-12c59.8,0,116.1,23.3,158.4,65.6S492,184.2,492,244C492,250.7,486.6,256.1,479.9,256.1
			L479.9,256.1z"/>
		<path class="st0" d="M325,187c15.2,15.2,23.6,35.4,23.6,57c0,17.7,14.4,32.1,32.1,32.1s32.1-14.4,32.1-32.1
			c0-38.6-15.1-75-42.4-102.3C343,114.4,306.6,99.3,268,99.3c-17.7,0-32.1,14.4-32.1,32.1s14.4,32.1,32.1,32.1
			C289.5,163.5,309.7,171.8,325,187L325,187z M255.9,131.4c0-6.7,5.4-12.1,12.1-12.1c33.3,0,64.6,13,88.2,36.5
			c23.6,23.6,36.5,54.9,36.5,88.2c0,6.7-5.4,12.1-12.1,12.1s-12.1-5.4-12.1-12.1c0-26.9-10.5-52.1-29.5-71.1s-44.2-29.5-71.1-29.5
			C261.3,143.5,255.9,138,255.9,131.4L255.9,131.4z"/>
		<path class="st0" d="M177.3,324.7c-5.5,0-10,4.5-10,10s4.5,10,10,10s10-4.5,10-10S182.8,324.7,177.3,324.7L177.3,324.7z"/>
	</g>
</g>
</svg>
