<?xml version="1.0" encoding="utf-8"?>
<!-- Generator: Adobe Illustrator 24.3.0, SVG Export Plug-In . SVG Version: 6.00 Build 0)  -->
<svg version="1.1" id="Layer_1" xmlns="http://www.w3.org/2000/svg" xmlns:xlink="http://www.w3.org/1999/xlink" x="0px" y="0px"
	 viewBox="0 0 512 512" style="enable-background:new 0 0 512 512;" xml:space="preserve">
<style type="text/css">
	.st0{fill:#463F3A;}
</style>
<g>
	<g>
		<path class="st0" d="M495.5,236.3c0-13.9-5.4-26.8-15.2-36.1c-9.5-9-22.1-14-35.6-14l-162.4,0c-16.5-17.9-22-44.1-13.3-65
			c13-31.4,12.3-56.7-2.5-84.7C255,14.6,226-2.6,205.6,0.3c-12.3,1.8-20.8,10.2-23.5,23.2c-0.9,4.3-1.1,9.3-1.4,15.1
			c-0.8,16.2-2,38.3-16.2,65.5c-8.3,15.9-11.1,32.7-13.7,47.6c-4.6,27.4-7.4,43.7-34.7,46.6v-2.7c0-5.5-4.5-10-10-10H26.5
			c-5.5,0-10,4.5-10,10v294c0,5.5,4.5,10,10,10h79.7c5.5,0,10-4.5,10-10v-2.8c18.4,1.5,36.9,6.6,56.4,12
			c23.3,6.4,47.3,13.1,71.7,13.1h112.1c30.7,0,55.5-16.2,66.4-43.3c6.2-15.4,6.5-31.3,1.3-43.2c7.6-5.5,13.9-13.1,18.5-22.5
			c8.3-17,9.2-36.3,2.8-51.1c10.9-8.5,17.6-20.8,20.7-32.6c3.6-13.9,2.6-27.3-2.2-37.6C482.4,274.3,495.5,256.6,495.5,236.3z
			 M445.4,265.4l-50,1.1c-5.5,0.1-9.9,4.7-9.8,10.2c0.1,5.5,4.7,9.9,10.2,9.8l46.8-1c5.4,5,7.3,16.9,4.2,28.9
			c-1.8,6.8-9.5,28.9-35.3,28.9c-5.5,0-10,4.5-10,10c0,5.5,4.5,10,10,10c5.8,0,11.2-0.8,16.1-2.1c3.5,9.4,2.6,22.2-2.8,33.3
			c-2.8,5.7-8.3,14.1-18.3,18.4c-0.3,0.1-0.6,0.2-0.9,0.4c-3.8,1.5-8.2,2.5-13.3,2.5c-5.5,0-10,4.5-10,10c0,5.5,4.5,10,10,10
			c4.7,0,9.3-0.6,13.7-1.6c2.5,6.3,2.7,16.3-1.7,27.4c-3.7,9.2-15.8,30.7-47.8,30.7H244.3c-21.7,0-43.4-6-66.4-12.4
			c-20.1-5.6-40.8-11.3-61.7-12.7v-79.2c0-5.5-4.5-10-10-10s-10,4.5-10,10v92H36.5v-274h59.7v92c0,5.5,4.5,10,10,10s10-4.5,10-10
			v-79.2c44.4-4,49.7-35.4,54.4-63.4c2.4-14.1,4.9-28.7,11.7-41.7c16.2-31,17.5-56.7,18.4-73.7c0.3-5,0.5-9.4,1.1-12.2
			c1.2-6.1,4.1-7,6.7-7.4c11-1.6,32.2,10.2,40.4,25.7c12,22.8,12.5,41.7,1.7,67.7c-9.5,23-6.5,50.5,6.9,72.7h-12.3
			c-5.5,0-10,4.5-10,10c0,5.5,4.5,10,10,10l199.6,0c8.3,0,16.1,3,21.9,8.5c5.8,5.5,9,13.2,9,21.6C475.5,252,462,265,445.4,265.4
			L445.4,265.4z"/>
		<path class="st0" d="M106.2,332.7c-5.5,0-10,4.5-10,10c0,5.5,4.5,10,10,10s10-4.5,10-10v0C116.2,337.2,111.8,332.7,106.2,332.7z"
			/>
	</g>
</g>
</svg>
