<?xml version="1.0" encoding="utf-8"?>
<!-- Generator: Adobe Illustrator 24.3.0, SVG Export Plug-In . SVG Version: 6.00 Build 0)  -->
<svg version="1.1" id="Layer_1" xmlns="http://www.w3.org/2000/svg" xmlns:xlink="http://www.w3.org/1999/xlink" x="0px" y="0px"
	 viewBox="0 0 512 512" style="enable-background:new 0 0 512 512;" xml:space="preserve">
<style type="text/css">
	.st0{fill:#463F3A;}
</style>
<g>
	<g>
		<path class="st0" d="M431.2,326.2c-32.3-32.3-71.9-54.6-115.2-65.3c45.7-22.3,77.3-69.3,77.3-123.5C393.4,61.6,331.8,0,256,0
			S118.6,61.6,118.6,137.4c0,54.2,31.6,101.2,77.3,123.5c-43.2,10.7-82.9,33-115.2,65.3C34,373,8.2,435.2,8.2,501.4
			c0,5.8,4.7,10.6,10.6,10.6h474.5c5.8,0,10.6-4.7,10.6-10.6C503.8,435.2,478,373,431.2,326.2z M139.8,137.4
			c0-64.1,52.1-116.2,116.2-116.2s116.2,52.1,116.2,116.2S320.1,253.6,256,253.6S139.8,201.5,139.8,137.4z M29.6,490.9
			c5.5-120.1,105-216.1,226.4-216.1s220.9,96,226.4,216.1H29.6z"/>
	</g>
</g>
<path class="st0" d="M182.3,319.5c-3.5-5.3-11-7-16.8-3.9c-55.1,30.1-95.3,79.9-110.3,136.6c-1.6,6,2.5,12.1,9.1,13.5
	c1,0.2,1.9,0.3,2.9,0.3c5.5,0,10.6-3.4,11.9-8.6c13.4-50.9,49.5-95.7,99-122.7C183.8,331.6,185.7,324.8,182.3,319.5z"/>
<circle class="st0" cx="214" cy="311" r="12"/>
</svg>
